<svg width="228" height="205" viewBox="0 0 228 205" fill="none" xmlns="http://www.w3.org/2000/svg">
<path d="M37.3355 48.384C34.0075 48.384 30.8075 47.8507 27.7355 46.784C24.7062 45.6747 22.3595 44.2667 20.6955 42.56L22.5515 38.912C24.1302 40.448 26.2422 41.7493 28.8875 42.816C31.5755 43.84 34.3915 44.352 37.3355 44.352C40.1515 44.352 42.4342 44.0107 44.1835 43.328C45.9755 42.6027 47.2768 41.6427 48.0875 40.448C48.9408 39.2533 49.3675 37.9307 49.3675 36.48C49.3675 34.7307 48.8555 33.3227 47.8315 32.256C46.8502 31.1893 45.5488 30.3573 43.9275 29.76C42.3062 29.12 40.5142 28.5653 38.5515 28.096C36.5888 27.6267 34.6262 27.136 32.6635 26.624C30.7008 26.0693 28.8875 25.344 27.2235 24.448C25.6022 23.552 24.2795 22.3787 23.2555 20.928C22.2742 19.4347 21.7835 17.4933 21.7835 15.104C21.7835 12.8853 22.3595 10.8587 23.5115 9.024C24.7062 7.14666 26.5195 5.65333 28.9515 4.544C31.3835 3.392 34.4982 2.816 38.2955 2.816C40.8128 2.816 43.3088 3.17867 45.7835 3.904C48.2582 4.58666 50.3915 5.54666 52.1835 6.784L50.5835 10.56C48.6635 9.28 46.6155 8.34133 44.4395 7.744C42.3062 7.14667 40.2368 6.848 38.2315 6.848C35.5435 6.848 33.3248 7.21067 31.5755 7.936C29.8262 8.66133 28.5248 9.64266 27.6715 10.88C26.8608 12.0747 26.4555 13.44 26.4555 14.976C26.4555 16.7253 26.9462 18.1333 27.9275 19.2C28.9515 20.2667 30.2742 21.0987 31.8955 21.696C33.5595 22.2933 35.3728 22.8267 37.3355 23.296C39.2982 23.7653 41.2395 24.2773 43.1595 24.832C45.1222 25.3867 46.9142 26.112 48.5355 27.008C50.1995 27.8613 51.5222 29.0133 52.5035 30.464C53.5275 31.9147 54.0395 33.8133 54.0395 36.16C54.0395 38.336 53.4422 40.3627 52.2475 42.24C51.0528 44.0747 49.2182 45.568 46.7435 46.72C44.3115 47.8293 41.1755 48.384 37.3355 48.384ZM74.0225 48.32C70.8652 48.32 68.4332 47.4667 66.7265 45.76C65.0198 44.0533 64.1665 41.6427 64.1665 38.528V6.976H68.7105V38.272C68.7105 40.2347 69.2012 41.7493 70.1825 42.816C71.2065 43.8827 72.6572 44.416 74.5345 44.416C76.5398 44.416 78.2038 43.84 79.5265 42.688L81.1265 45.952C80.2305 46.7627 79.1425 47.36 77.8625 47.744C76.6252 48.128 75.3452 48.32 74.0225 48.32ZM58.1505 18.176V14.4H78.9505V18.176H58.1505ZM103.287 48.32C100.428 48.32 97.9318 47.7867 95.7985 46.72C93.6652 45.6533 92.0012 44.0533 90.8065 41.92C89.6545 39.7867 89.0785 37.12 89.0785 33.92V14.4H93.6225V33.408C93.6225 36.992 94.4972 39.7013 96.2465 41.536C98.0385 43.328 100.535 44.224 103.735 44.224C106.081 44.224 108.108 43.7547 109.815 42.816C111.564 41.8347 112.887 40.4267 113.783 38.592C114.721 36.7573 115.191 34.56 115.191 32V14.4H119.735V48H115.382V38.784L116.087 40.448C115.02 42.9227 113.356 44.864 111.095 46.272C108.876 47.6373 106.273 48.32 103.287 48.32ZM149.743 48.32C146.841 48.32 144.217 47.6587 141.871 46.336C139.524 44.9707 137.647 43.0293 136.239 40.512C134.873 37.952 134.191 34.8373 134.191 31.168C134.191 27.4987 134.873 24.4053 136.239 21.888C137.604 19.328 139.46 17.3867 141.807 16.064C144.153 14.7413 146.799 14.08 149.743 14.08C152.943 14.08 155.801 14.8053 158.319 16.256C160.879 17.664 162.884 19.6693 164.335 22.272C165.785 24.832 166.511 27.7973 166.511 31.168C166.511 34.5813 165.785 37.568 164.335 40.128C162.884 42.688 160.879 44.6933 158.319 46.144C155.801 47.5947 152.943 48.32 149.743 48.32ZM132.399 60.416V14.4H136.751V24.512L136.303 31.232L136.943 38.016V60.416H132.399ZM149.423 44.288C151.812 44.288 153.945 43.7547 155.823 42.688C157.7 41.5787 159.193 40.0427 160.303 38.08C161.412 36.0747 161.967 33.7707 161.967 31.168C161.967 28.5653 161.412 26.2827 160.303 24.32C159.193 22.3573 157.7 20.8213 155.823 19.712C153.945 18.6027 151.812 18.048 149.423 18.048C147.033 18.048 144.879 18.6027 142.958 19.712C141.081 20.8213 139.588 22.3573 138.479 24.32C137.412 26.2827 136.879 28.5653 136.879 31.168C136.879 33.7707 137.412 36.0747 138.479 38.08C139.588 40.0427 141.081 41.5787 142.958 42.688C144.879 43.7547 147.033 44.288 149.423 44.288ZM175.774 48V14.4H180.318V48H175.774ZM178.078 6.976C177.139 6.976 176.35 6.656 175.71 6.016C175.07 5.376 174.75 4.608 174.75 3.712C174.75 2.816 175.07 2.06933 175.71 1.472C176.35 0.831997 177.139 0.511997 178.078 0.511997C179.016 0.511997 179.806 0.810664 180.446 1.408C181.086 2.00533 181.406 2.752 181.406 3.648C181.406 4.58667 181.086 5.376 180.446 6.016C179.848 6.656 179.059 6.976 178.078 6.976ZM206.337 48.32C203.137 48.32 200.257 47.5947 197.697 46.144C195.18 44.6933 193.196 42.688 191.745 40.128C190.294 37.5253 189.569 34.5387 189.569 31.168C189.569 27.7547 190.294 24.768 191.745 22.208C193.196 19.648 195.18 17.664 197.697 16.256C200.257 14.8053 203.137 14.08 206.337 14.08C209.281 14.08 211.905 14.7413 214.209 16.064C216.556 17.3867 218.412 19.328 219.777 21.888C221.185 24.4053 221.889 27.4987 221.889 31.168C221.889 34.7947 221.206 37.888 219.841 40.448C218.476 43.008 216.62 44.9707 214.273 46.336C211.969 47.6587 209.324 48.32 206.337 48.32ZM206.657 44.288C209.046 44.288 211.18 43.7547 213.057 42.688C214.977 41.5787 216.47 40.0427 217.537 38.08C218.646 36.0747 219.201 33.7707 219.201 31.168C219.201 28.5227 218.646 26.2187 217.537 24.256C216.47 22.2933 214.977 20.7787 213.057 19.712C211.18 18.6027 209.046 18.048 206.657 18.048C204.31 18.048 202.198 18.6027 200.321 19.712C198.444 20.7787 196.95 22.2933 195.841 24.256C194.732 26.2187 194.177 28.5227 194.177 31.168C194.177 33.7707 194.732 36.0747 195.841 38.08C196.95 40.0427 198.444 41.5787 200.321 42.688C202.198 43.7547 204.31 44.288 206.657 44.288ZM219.329 48V37.888L219.777 31.104L219.137 24.32V0.511997H223.681V48H219.329ZM19.032 126.768C15.448 126.768 12.0133 126.299 8.728 125.36C5.44267 124.379 2.79733 123.12 0.792 121.584L4.312 113.776C6.232 115.141 8.49333 116.272 11.096 117.168C13.7413 118.021 16.408 118.448 19.096 118.448C21.144 118.448 22.7867 118.256 24.024 117.872C25.304 117.445 26.2427 116.869 26.84 116.144C27.4373 115.419 27.736 114.587 27.736 113.648C27.736 112.453 27.2667 111.515 26.328 110.832C25.3893 110.107 24.152 109.531 22.616 109.104C21.08 108.635 19.3733 108.208 17.496 107.824C15.6613 107.397 13.8053 106.885 11.928 106.288C10.0933 105.691 8.408 104.923 6.872 103.984C5.336 103.045 4.07733 101.808 3.096 100.272C2.15733 98.736 1.688 96.7733 1.688 94.384C1.688 91.824 2.37067 89.4987 3.736 87.408C5.144 85.2747 7.23467 83.5893 10.008 82.352C12.824 81.072 16.344 80.432 20.568 80.432C23.384 80.432 26.1573 80.7733 28.888 81.456C31.6187 82.096 34.0293 83.0773 36.12 84.4L32.92 92.272C30.8293 91.0773 28.7387 90.2027 26.648 89.648C24.5573 89.0507 22.5093 88.752 20.504 88.752C18.4987 88.752 16.856 88.9867 15.576 89.456C14.296 89.9253 13.3787 90.544 12.824 91.312C12.2693 92.0373 11.992 92.8907 11.992 93.872C11.992 95.024 12.4613 95.9627 13.4 96.688C14.3387 97.3707 15.576 97.9253 17.112 98.352C18.648 98.7787 20.3333 99.2053 22.168 99.632C24.0453 100.059 25.9013 100.549 27.736 101.104C29.6133 101.659 31.32 102.405 32.856 103.344C34.392 104.283 35.6293 105.52 36.568 107.056C37.5493 108.592 38.04 110.533 38.04 112.88C38.04 115.397 37.336 117.701 35.928 119.792C34.52 121.883 32.408 123.568 29.592 124.848C26.8187 126.128 23.2987 126.768 19.032 126.768ZM44.4205 126V91.568H54.4045V126H44.4205ZM49.4125 86.768C47.5778 86.768 46.0845 86.2347 44.9325 85.168C43.7805 84.1013 43.2045 82.7787 43.2045 81.2C43.2045 79.6213 43.7805 78.2987 44.9325 77.232C46.0845 76.1653 47.5778 75.632 49.4125 75.632C51.2472 75.632 52.7405 76.144 53.8925 77.168C55.0445 78.1493 55.6205 79.4293 55.6205 81.008C55.6205 82.672 55.0445 84.0587 53.8925 85.168C52.7832 86.2347 51.2898 86.768 49.4125 86.768ZM107.767 91.056C110.497 91.056 112.908 91.6107 114.999 92.72C117.132 93.7867 118.796 95.4507 119.991 97.712C121.228 99.9307 121.847 102.789 121.847 106.288V126H111.863V107.824C111.863 105.051 111.287 103.003 110.135 101.68C108.983 100.357 107.361 99.696 105.271 99.696C103.82 99.696 102.519 100.037 101.367 100.72C100.215 101.36 99.3185 102.341 98.6785 103.664C98.0385 104.987 97.7185 106.672 97.7185 108.72V126H87.7345V107.824C87.7345 105.051 87.1585 103.003 86.0065 101.68C84.8972 100.357 83.2972 99.696 81.2065 99.696C79.7558 99.696 78.4545 100.037 77.3025 100.72C76.1505 101.36 75.2545 102.341 74.6145 103.664C73.9745 104.987 73.6545 106.672 73.6545 108.72V126H63.6705V91.568H73.2065V100.976L71.4145 98.224C72.6092 95.8773 74.2945 94.1067 76.4705 92.912C78.6892 91.6747 81.2065 91.056 84.0225 91.056C87.1798 91.056 89.9318 91.8667 92.2785 93.488C94.6678 95.0667 96.2465 97.4987 97.0145 100.784L93.4945 99.824C94.6465 97.136 96.4812 95.0027 98.9985 93.424C101.559 91.8453 104.481 91.056 107.767 91.056ZM151.148 126.512C148.246 126.512 145.708 125.872 143.532 124.592C141.356 123.312 139.649 121.371 138.412 118.768C137.217 116.123 136.62 112.795 136.62 108.784C136.62 104.731 137.196 101.403 138.348 98.8C139.5 96.1973 141.164 94.256 143.34 92.976C145.516 91.696 148.118 91.056 151.148 91.056C154.39 91.056 157.292 91.8027 159.852 93.296C162.454 94.7467 164.502 96.7947 165.996 99.44C167.532 102.085 168.3 105.2 168.3 108.784C168.3 112.411 167.532 115.547 165.996 118.192C164.502 120.837 162.454 122.885 159.852 124.336C157.292 125.787 154.39 126.512 151.148 126.512ZM130.796 138.416V91.568H140.332V98.608L140.14 108.848L140.78 119.024V138.416H130.796ZM149.42 118.32C151.084 118.32 152.556 117.936 153.836 117.168C155.158 116.4 156.204 115.312 156.972 113.904C157.782 112.453 158.188 110.747 158.188 108.784C158.188 106.779 157.782 105.072 156.972 103.664C156.204 102.256 155.158 101.168 153.836 100.4C152.556 99.632 151.084 99.248 149.42 99.248C147.756 99.248 146.262 99.632 144.94 100.4C143.617 101.168 142.572 102.256 141.804 103.664C141.036 105.072 140.652 106.779 140.652 108.784C140.652 110.747 141.036 112.453 141.804 113.904C142.572 115.312 143.617 116.4 144.94 117.168C146.262 117.936 147.756 118.32 149.42 118.32ZM174.983 126V78.512H184.967V126H174.983ZM211.321 126.512C207.396 126.512 203.94 125.744 200.953 124.208C198.009 122.672 195.726 120.581 194.105 117.936C192.484 115.248 191.673 112.197 191.673 108.784C191.673 105.328 192.462 102.277 194.041 99.632C195.662 96.944 197.86 94.8533 200.633 93.36C203.406 91.824 206.542 91.056 210.041 91.056C213.412 91.056 216.441 91.7813 219.129 93.232C221.86 94.64 224.014 96.688 225.593 99.376C227.172 102.021 227.961 105.2 227.961 108.912C227.961 109.296 227.94 109.744 227.897 110.256C227.854 110.725 227.812 111.173 227.769 111.6H199.801V105.776H222.521L218.681 107.504C218.681 105.712 218.318 104.155 217.593 102.832C216.868 101.509 215.865 100.485 214.585 99.76C213.305 98.992 211.812 98.608 210.105 98.608C208.398 98.608 206.884 98.992 205.561 99.76C204.281 100.485 203.278 101.531 202.553 102.896C201.828 104.219 201.465 105.797 201.465 107.632V109.168C201.465 111.045 201.87 112.709 202.681 114.16C203.534 115.568 204.708 116.656 206.201 117.424C207.737 118.149 209.529 118.512 211.577 118.512C213.412 118.512 215.012 118.235 216.377 117.68C217.785 117.125 219.065 116.293 220.217 115.184L225.529 120.944C223.95 122.736 221.966 124.123 219.577 125.104C217.188 126.043 214.436 126.512 211.321 126.512ZM185.344 204.384C179.627 204.384 175.125 202.741 171.84 199.456C168.555 196.171 166.912 191.307 166.912 184.864V159.2H171.648V184.672C171.648 189.963 172.843 193.867 175.232 196.384C177.621 198.901 180.992 200.16 185.344 200.16C189.739 200.16 193.131 198.901 195.52 196.384C197.909 193.867 199.104 189.963 199.104 184.672V159.2H203.712V184.864C203.712 191.307 202.069 196.171 198.784 199.456C195.541 202.741 191.061 204.384 185.344 204.384ZM217.984 204V159.2H222.72V204H217.984Z" fill="url(#paint0_linear_23_697)"/>
<defs>
<linearGradient id="paint0_linear_23_697" x1="170.703" y1="-33.4998" x2="307.341" y2="189.995" gradientUnits="userSpaceOnUse">
<stop stop-color="#3B48F7"/>
<stop offset="1" stop-color="#16BAC5"/>
</linearGradient>
</defs>
</svg>
